<?xml version="1.0" encoding="UTF-8" standalone="no"?>
<svg
   viewBox="0 0 200 100"
   version="1.1"
   id="svg38"
   sodipodi:docname="ambulance.svg"
   inkscape:version="1.4.4 (dcaf3e7, 2026-05-05)"
   xmlns:inkscape="http://www.inkscape.org/namespaces/inkscape"
   xmlns:sodipodi="http://sodipodi.sourceforge.net/DTD/sodipodi-0.dtd"
   xmlns:xlink="http://www.w3.org/1999/xlink"
   xmlns="http://www.w3.org/2000/svg"
   xmlns:svg="http://www.w3.org/2000/svg">
  <sodipodi:namedview
     id="namedview38"
     pagecolor="#ffffff"
     bordercolor="#000000"
     borderopacity="0.25"
     inkscape:showpageshadow="2"
     inkscape:pageopacity="0.0"
     inkscape:pagecheckerboard="0"
     inkscape:deskcolor="#d1d1d1"
     inkscape:zoom="4.4"
     inkscape:cx="100.11364"
     inkscape:cy="49.886364"
     inkscape:window-width="1674"
     inkscape:window-height="1186"
     inkscape:window-x="530"
     inkscape:window-y="109"
     inkscape:window-maximized="0"
     inkscape:current-layer="svg38" />
  <defs
     id="defs7">
    <linearGradient
       id="ambWhite"
       x1="0%"
       y1="0%"
       x2="100%"
       y2="100%">
      <stop
         offset="0%"
         style="stop-color:#FAFAFA"
         id="stop1" />
      <stop
         offset="50%"
         style="stop-color:#EEEEEE"
         id="stop2" />
      <stop
         offset="100%"
         style="stop-color:#E0E0E0"
         id="stop3" />
    </linearGradient>
    <linearGradient
       id="glassGrad"
       x1="0%"
       y1="0%"
       x2="0%"
       y2="100%">
      <stop
         offset="0%"
         style="stop-color:#2A3A4A;stop-opacity:0.85"
         id="stop4" />
      <stop
         offset="100%"
         style="stop-color:#1A2530;stop-opacity:0.95"
         id="stop5" />
    </linearGradient>
    <linearGradient
       id="redLight"
       x1="0%"
       y1="0%"
       x2="100%"
       y2="0%">
      <stop
         offset="0%"
         style="stop-color:#FF1744"
         id="stop6" />
      <stop
         offset="100%"
         style="stop-color:#D50000"
         id="stop7" />
    </linearGradient>
    <linearGradient
       inkscape:collect="always"
       xlink:href="#glassGrad"
       id="linearGradient38"
       x1="12.403473"
       y1="35.473934"
       x2="12.403473"
       y2="67.722965"
       gradientTransform="matrix(0,-2.0352971,1.2051102,0,-4.9318186,108.24475)"
       gradientUnits="userSpaceOnUse" />
    <linearGradient
       inkscape:collect="always"
       xlink:href="#glassGrad"
       id="linearGradient39"
       x1="79.772404"
       y1="52.649786"
       x2="79.772404"
       y2="70.199715"
       gradientTransform="matrix(1.9400926,0,0,0.79772404,-22.254048,8.2309749)"
       gradientUnits="userSpaceOnUse" />
  </defs>
  <!-- 白色方体车身 -->
  <path
     d="M 18,8 L 182,8 Q 192,8 192,18 L 192,82 Q 192,92 182,92 L 18,92 Q 8,92 8,82 L 8,18 Q 8,8 18,8 Z"
     fill="url(#ambWhite)"
     id="path7" />
  <!-- 驾驶舱/驾驶室 -->
  <path
     d="M 16,16 L 78,16 Q 84,16 84,22 L 84,78 Q 84,84 78,84 L 16,84 Q 10,84 10,78 L 10,22 Q 10,16 16,16 Z"
     fill="#E8E8E8"
     id="path8" />
  <!-- 前挡风 -->
  <path
     d="M 37.818182,83 V 17.363636 l 38.863636,1.262238 v 61.849651 z"
     fill="url(#glassGrad)"
     id="path9"
     style="fill:url(#linearGradient38);stroke-width:1.56612" />
  <!-- 医疗舱（后部箱体） -->
  <path
     d="M 82,12 L 180,12 Q 186,12 186,18 L 186,82 Q 186,88 180,88 L 82,88 Q 78,88 78,82 L 78,18 Q 78,12 82,12 Z"
     fill="url(#ambWhite)"
     id="path10" />
  <!-- 前部舱顶红灯条 -->
  <rect
     x="-87.545456"
     y="82.045456"
     width="75"
     height="8"
     rx="1.6666666"
     fill="#1a1a1a"
     id="rect10"
     transform="rotate(-90)"
     style="stroke-width:0.912871" />
  <rect
     x="-31.681818"
     y="84.227272"
     width="16"
     height="4"
     rx="1.5"
     fill="#ff1744"
     id="rect11"
     transform="rotate(-90)" />
  <rect
     x="-49.18182"
     y="84"
     width="16"
     height="4"
     rx="1.5"
     fill="#ffd700"
     id="rect12"
     transform="rotate(-90)" />
  <rect
     x="-67.136368"
     y="84"
     width="16"
     height="4"
     rx="1.5"
     fill="#ff1744"
     id="rect13"
     transform="rotate(-90)" />
  <rect
     x="-85.090912"
     y="84"
     width="16"
     height="4"
     rx="1.5"
     fill="#ffd700"
     id="rect14"
     transform="rotate(-90)" />
  <!-- 四角红色警示灯（对称设计） -->
  <rect
     x="86"
     y="6"
     width="7"
     height="5"
     rx="1.5"
     fill="url(#redLight)"
     id="rect15" />
  <rect
     x="163"
     y="6"
     width="7"
     height="5"
     rx="1.5"
     fill="url(#redLight)"
     id="rect16" />
  <rect
     x="86"
     y="89"
     width="7"
     height="5"
     rx="1.5"
     fill="url(#redLight)"
     id="rect17" />
  <rect
     x="163"
     y="89"
     width="7"
     height="5"
     rx="1.5"
     fill="url(#redLight)"
     id="rect18" />
  <!-- 医疗十字标志（对称放置） -->
  <g
     transform="matrix(0,1,-1.1799242,0,107.65909,49.590909)"
     id="g21">
    <rect
       x="-12"
       y="-12"
       width="24"
       height="24"
       rx="2"
       fill="#d32f2f"
       opacity="0.15"
       id="rect19" />
    <rect
       x="-3"
       y="-7"
       width="6"
       height="14"
       rx="1"
       fill="#d32f2f"
       id="rect20" />
    <rect
       x="-9"
       y="-1"
       width="18"
       height="6"
       rx="1"
       fill="#d32f2f"
       id="rect21" />
  </g>
  <!-- 车顶设备 -->
  <rect
     x="148.90909"
     y="31.818182"
     width="18"
     height="12"
     rx="2"
     fill="#dddddd"
     stroke="#bbbbbb"
     stroke-width="0.5"
     id="rect22" />
  <rect
     x="133.13426"
     y="32.270622"
     width="11.9133"
     height="11.095118"
     rx="1.9855499"
     fill="#eeeeee"
     stroke="#cccccc"
     stroke-width="0.5867"
     id="rect23" />
  <!-- 天线 -->
  <line
     x1="96"
     y1="12"
     x2="96"
     y2="3"
     stroke="#888"
     stroke-width="1"
     id="line23" />
  <circle
     cx="96"
     cy="3"
     r="1.5"
     fill="#666"
     id="circle23" />
  <line
     x1="164"
     y1="12"
     x2="164"
     y2="5"
     stroke="#888"
     stroke-width="1"
     id="line24" />
  <!-- 侧窗 -->
  <rect
     x="132.5118"
     y="50.230976"
     width="34.048489"
     height="14"
     rx="1.5476586"
     fill="url(#glassGrad)"
     opacity="0.5"
     id="rect24"
     style="fill:url(#linearGradient39);stroke-width:1.24405"
     transform="matrix(0.99991089,0.01334995,0,1,0,0)" />
  <!-- 双边后视镜 -->
  <ellipse
     cx="6.6617794"
     cy="37.868477"
     rx="4"
     ry="7"
     fill="#cccccc"
     transform="rotate(-10)"
     id="ellipse24" />
  <ellipse
     cx="191.01881"
     cy="2.1459312"
     rx="3.9941692"
     ry="6.6639829"
     fill="#cccccc"
     transform="matrix(0.9862454,0.16528767,-0.18240402,0.98322366,0,0)"
     id="ellipse25"
     style="stroke-width:0.974992" />
  <ellipse
     cx="23.294806"
     cy="59.079727"
     rx="4"
     ry="7"
     fill="#cccccc"
     transform="rotate(10)"
     id="ellipse26" />
  <ellipse
     cx="173.1805"
     cy="94.304588"
     rx="3.9941692"
     ry="6.6639829"
     fill="#cccccc"
     transform="matrix(0.9862454,-0.16528767,0.18240402,0.98322366,0,0)"
     id="ellipse27"
     style="stroke-width:0.974992" />
  <!-- 红色侧反光条 -->
  <rect
     x="173.13637"
     y="14.727273"
     width="4"
     height="18"
     rx="1"
     fill="#d32f2f"
     opacity="0.6"
     id="rect27" />
  <rect
     x="173.09091"
     y="67.227272"
     width="4"
     height="18"
     rx="1"
     fill="#d32f2f"
     opacity="0.6"
     id="rect28" />
  <!-- 大灯 -->
  <ellipse
     cx="13.545455"
     cy="22.545454"
     rx="5"
     ry="3"
     fill="#fff5e0"
     opacity="0.8"
     id="ellipse28" />
  <ellipse
     cx="186"
     cy="22.27739"
     rx="5"
     ry="2.8513985"
     fill="#fff5e0"
     opacity="0.8"
     id="ellipse29"
     style="stroke-width:0.974919" />
  <ellipse
     cx="13.772727"
     cy="77.818184"
     rx="5"
     ry="3"
     fill="#fff5e0"
     opacity="0.8"
     id="ellipse30" />
  <ellipse
     cx="186"
     cy="77.404427"
     rx="5"
     ry="2.8513985"
     fill="#fff5e0"
     opacity="0.8"
     id="ellipse31"
     style="stroke-width:0.974919" />
  <!-- 尾灯 -->
  <rect
     x="14.227273"
     y="84.045456"
     width="5"
     height="4"
     rx="1"
     fill="#ff1744"
     opacity="0.9"
     id="rect31" />
  <rect
     x="181"
     y="83.107224"
     width="5"
     height="3.8018649"
     rx="1"
     fill="#ff1744"
     opacity="0.9"
     id="rect32"
     style="stroke-width:0.974919" />
  <rect
     x="13.090909"
     y="12.318182"
     width="5"
     height="4"
     rx="1"
     fill="#ff1744"
     opacity="0.9"
     id="rect33" />
  <rect
     x="181"
     y="12.772727"
     width="5"
     height="3.8018649"
     rx="1"
     fill="#ff1744"
     opacity="0.9"
     id="rect34"
     style="stroke-width:0.974919" />
  <!-- 四轮 -->
  <rect
     x="144"
     y="7"
     width="22"
     height="5"
     rx="2.5"
     fill="#1A1A1A"
     id="rect35" />
  <rect
     x="144"
     y="88"
     width="22"
     height="5"
     rx="2.5"
     fill="#1A1A1A"
     id="rect36" />
  <rect
     x="32"
     y="7"
     width="22"
     height="5"
     rx="2.5"
     fill="#1A1A1A"
     id="rect37" />
  <rect
     x="32"
     y="88"
     width="22"
     height="5"
     rx="2.5"
     fill="#1A1A1A"
     id="rect38" />
  <!-- 轮廓 -->
  <path
     d="M 18,8 L 182,8 Q 192,8 192,18 L 192,82 Q 192,92 182,92 L 18,92 Q 8,92 8,82 L 8,18 Q 8,8 18,8 Z"
     fill="none"
     stroke="#AAA"
     stroke-width="1.2"
     id="path38" />
</svg>
