<svg xmlns="http://www.w3.org/2000/svg" viewBox="0 0 200 100"><rect x="8" y="15" width="184" height="70" rx="6" fill="#FFFFFF"/><rect x="8" y="15" width="184" height="70" rx="6" fill="none" stroke="#E0E0E0" stroke-width="2"/><rect x="8" y="42" width="60" height="6" rx="4" fill="#2196F3"/><rect x="132" y="42" width="60" height="6" rx="4" fill="#2196F3"/><rect x="88" y="35" width="24" height="30" rx="2" fill="#FF1744"/><rect x="80" y="43" width="40" height="14" rx="2" fill="#FF1744"/><rect x="70" y="5" width="60" height="12" rx="6" fill="#FF1744"/><circle cx="80" cy="11" r="5" fill="#FFFFFF"/><circle cx="100" cy="11" r="5" fill="#FFFFFF"/><circle cx="120" cy="11" r="5" fill="#FFFFFF"/><rect x="50" y="22" width="40" height="15" rx="3" fill="rgba(0,0,0,0.15)"/><text x="100" y="65" font-size="8" fill="#FF1744" font-weight="bold" text-anchor="middle" dominant-baseline="central" font-family="Arial,sans-serif">AMBULANCE</text><rect x="30" y="12" width="18" height="8" rx="2" fill="#333"/><rect x="30" y="80" width="18" height="8" rx="2" fill="#333"/><rect x="140" y="12" width="18" height="8" rx="2" fill="#333"/><rect x="140" y="80" width="18" height="8" rx="2" fill="#333"/></svg>