<svg xmlns="http://www.w3.org/2000/svg" viewBox="0 0 200 100"><path d="M 12,2 L 188,2 Q 198,2 198,12 L 198,88 Q 198,98 188,98 L 12,98 Q 2,98 2,88 L 2,12 Q 2,2 12,2 Z" fill="#FFFFFF"/><rect x="2" y="2" width="196" height="96" rx="6" fill="none" stroke="#E0E0E0" stroke-width="1.5"/><rect x="2" y="32.0" width="196" height="6" fill="#FF1744"/><rect x="2" y="62.0" width="196" height="6" fill="#FF1744"/><rect x="2" y="43.0" width="196" height="4" fill="#2196F3"/><rect x="86" y="38" width="28" height="24" rx="3" fill="#FF1744"/><rect x="76" y="46" width="48" height="8" rx="3" fill="#FF1744"/><rect x="72" y="3" width="56" height="12" rx="4" fill="#FF1744"/><circle cx="80" cy="9" r="4" fill="#FFF"/><circle cx="100" cy="9" r="4" fill="#FFF"/><circle cx="120" cy="9" r="4" fill="#FFF"/><rect x="4" y="25.0" width="44.0" height="50.0" rx="3" fill="rgba(255,255,255,0.35)"/><text x="130" y="68" font-size="7" fill="#FF1744" font-weight="bold" font-family="Arial,sans-serif">AMBULANCE</text><rect x="16.0" y="2" width="28.000000000000004" height="4" rx="2" fill="#333"/><rect x="16.0" y="94" width="28.000000000000004" height="4" rx="2" fill="#333"/><rect x="144.0" y="2" width="28.000000000000004" height="4" rx="2" fill="#333"/><rect x="144.0" y="94" width="28.000000000000004" height="4" rx="2" fill="#333"/></svg>