<svg xmlns="http://www.w3.org/2000/svg" viewBox="0 0 300 100"><path d="M 12,2 L 288,2 Q 298,2 298,12 L 298,88 Q 298,98 288,98 L 12,98 Q 2,98 2,88 L 2,12 Q 2,2 12,2 Z" fill="#42A5F5"/><rect x="4" y="25.0" width="66.0" height="50.0" rx="3" fill="rgba(255,255,255,0.35)"/><rect x="84.00000000000001" y="27.5" width="33.5" height="45.0" rx="2" fill="rgba(255,255,255,0.25)"/><rect x="121.50000000000001" y="27.5" width="33.5" height="45.0" rx="2" fill="rgba(255,255,255,0.25)"/><rect x="159.0" y="27.5" width="33.5" height="45.0" rx="2" fill="rgba(255,255,255,0.25)"/><rect x="196.5" y="27.5" width="33.5" height="45.0" rx="2" fill="rgba(255,255,255,0.25)"/><rect x="242.0" y="29.0" width="54.0" height="42.0" rx="3" fill="rgba(255,255,255,0.30)"/><rect x="24.0" y="2" width="42.00000000000001" height="4" rx="2" fill="#333"/><rect x="24.0" y="94" width="42.00000000000001" height="4" rx="2" fill="#333"/><rect x="216.0" y="2" width="42.00000000000001" height="4" rx="2" fill="#333"/><rect x="216.0" y="94" width="42.00000000000001" height="4" rx="2" fill="#333"/></svg>