<svg xmlns="http://www.w3.org/2000/svg" viewBox="0 0 300 100"><path d="M 12,2 L 288,2 Q 298,2 298,12 L 298,88 Q 298,98 288,98 L 12,98 Q 2,98 2,88 L 2,12 Q 2,2 12,2 Z" fill="#8D6E63"/><ellipse cx="160" cy="50" rx="45" ry="36" fill="#BDBDBD" stroke="#9E9E9E" stroke-width="1.5"/><ellipse cx="160" cy="50" rx="38" ry="30" fill="none" stroke="#9E9E9E" stroke-width="0.8"/><line x1="125" y1="18" x2="125" y2="82" stroke="#9E9E9E" stroke-width="0.6"/><line x1="137" y1="18" x2="137" y2="82" stroke="#9E9E9E" stroke-width="0.6"/><line x1="149" y1="18" x2="149" y2="82" stroke="#9E9E9E" stroke-width="0.6"/><line x1="161" y1="18" x2="161" y2="82" stroke="#9E9E9E" stroke-width="0.6"/><line x1="173" y1="18" x2="173" y2="82" stroke="#9E9E9E" stroke-width="0.6"/><line x1="185" y1="18" x2="185" y2="82" stroke="#9E9E9E" stroke-width="0.6"/><path d="M 4,12 L 55,12 Q 58,12 58,15 L 58,85 Q 58,88 55,88 L 4,88 Q 2,88 2,85 L 2,15 Q 2,12 4,12 Z" fill="#FFA726"/><rect x="6" y="19.0" width="11.0" height="38.0" rx="3" fill="rgba(255,255,255,0.35)"/><rect x="24.0" y="2" width="42.00000000000001" height="4" rx="2" fill="#333"/><rect x="24.0" y="94" width="42.00000000000001" height="4" rx="2" fill="#333"/><rect x="216.0" y="2" width="42.00000000000001" height="4" rx="2" fill="#333"/><rect x="216.0" y="94" width="42.00000000000001" height="4" rx="2" fill="#333"/></svg>