<svg xmlns="http://www.w3.org/2000/svg" viewBox="0 0 300 100"><rect x="5" y="30" width="290" height="40" rx="6" fill="#8D6E63"/><circle cx="150" cy="50" r="38" fill="#BDBDBD"/><circle cx="150" cy="50" r="38" fill="none"/><circle cx="150" cy="50" r="38" fill="none" stroke="#9E9E9E" stroke-width="2"/><line x1="175" y1="50" x2="188" y2="50" stroke="#9E9E9E" stroke-width="1"/><line x1="168" y1="68" x2="177" y2="77" stroke="#9E9E9E" stroke-width="1"/><line x1="150" y1="75" x2="150" y2="88" stroke="#9E9E9E" stroke-width="1"/><line x1="132" y1="68" x2="123" y2="77" stroke="#9E9E9E" stroke-width="1"/><line x1="125" y1="50" x2="112" y2="50" stroke="#9E9E9E" stroke-width="1"/><line x1="132" y1="32" x2="123" y2="23" stroke="#9E9E9E" stroke-width="1"/><line x1="150" y1="25" x2="150" y2="12" stroke="#9E9E9E" stroke-width="1"/><line x1="168" y1="32" x2="177" y2="23" stroke="#9E9E9E" stroke-width="1"/><rect x="5" y="15" width="50" height="70" rx="6" fill="#FFA726"/><rect x="15" y="22" width="20" height="25" rx="3" fill="rgba(255,255,255,0.5)"/><rect x="20" y="12" width="30" height="8" rx="2" fill="#333"/><rect x="20" y="80" width="30" height="8" rx="2" fill="#333"/></svg>