<svg xmlns="http://www.w3.org/2000/svg" viewBox="0 0 300 100"><path d="M 86,4 L 296,4 Q 298,4 298,6 L 298,94 Q 298,96 296,96 L 86,96 Q 84,96 84,94 L 84,6 Q 84,4 86,4 Z" fill="#FFC107"/><polygon points="140,50 165,28 190,50 165,72" fill="#FF1744"/><text x="165" y="54" font-size="16" fill="#FFF" font-weight="bold" text-anchor="middle" dominant-baseline="central">!</text><polygon points="220,50 245,28 270,50 245,72" fill="#FF1744"/><text x="245" y="54" font-size="16" fill="#FFF" font-weight="bold" text-anchor="middle" dominant-baseline="central">!</text><path d="M 4,6 L 78,6 Q 82,6 82,10 L 82,90 Q 82,94 78,94 L 4,94 Q 2,94 2,90 L 2,10 Q 2,6 4,6 Z" fill="#E53935"/><rect x="6" y="22.0" width="16.28" height="44.0" rx="3" fill="rgba(255,255,255,0.35)"/><rect x="24.0" y="2" width="42.00000000000001" height="4" rx="2" fill="#333"/><rect x="24.0" y="94" width="42.00000000000001" height="4" rx="2" fill="#333"/><rect x="216.0" y="2" width="42.00000000000001" height="4" rx="2" fill="#333"/><rect x="216.0" y="94" width="42.00000000000001" height="4" rx="2" fill="#333"/></svg>