<?xml version="1.0" encoding="UTF-8" standalone="no"?>
<svg
   viewBox="0 0 300 100"
   version="1.1"
   id="svg55"
   sodipodi:docname="hazmat_truck.svg"
   inkscape:version="1.4.4 (dcaf3e7, 2026-05-05)"
   xmlns:inkscape="http://www.inkscape.org/namespaces/inkscape"
   xmlns:sodipodi="http://sodipodi.sourceforge.net/DTD/sodipodi-0.dtd"
   xmlns:xlink="http://www.w3.org/1999/xlink"
   xmlns="http://www.w3.org/2000/svg"
   xmlns:svg="http://www.w3.org/2000/svg">
  <sodipodi:namedview
     id="namedview55"
     pagecolor="#ffffff"
     bordercolor="#000000"
     borderopacity="0.25"
     inkscape:showpageshadow="2"
     inkscape:pageopacity="0.0"
     inkscape:pagecheckerboard="0"
     inkscape:deskcolor="#d1d1d1"
     inkscape:zoom="2.9333333"
     inkscape:cx="150"
     inkscape:cy="49.943182"
     inkscape:window-width="1553"
     inkscape:window-height="1186"
     inkscape:window-x="876"
     inkscape:window-y="392"
     inkscape:window-maximized="0"
     inkscape:current-layer="svg55" />
  <defs
     id="defs13">
    <linearGradient
       id="redTruckCab"
       x1="1.6329932"
       y1="26.944387"
       x2="70.218706"
       y2="95.5301"
       gradientTransform="matrix(0,-1.2247449,0.81649658,0,5.9318154,93.659091)"
       gradientUnits="userSpaceOnUse">
      <stop
         offset="0%"
         style="stop-color:#EF5350"
         id="stop1" />
      <stop
         offset="40%"
         style="stop-color:#E53935"
         id="stop2" />
      <stop
         offset="100%"
         style="stop-color:#C62828"
         id="stop3" />
    </linearGradient>
    <linearGradient
       id="tankSilver"
       x1="0%"
       y1="0%"
       x2="0%"
       y2="100%">
      <stop
         offset="0%"
         style="stop-color:#F5F5F5"
         id="stop4" />
      <stop
         offset="20%"
         style="stop-color:#E8E8E8"
         id="stop5" />
      <stop
         offset="50%"
         style="stop-color:#D8D8D8"
         id="stop6" />
      <stop
         offset="80%"
         style="stop-color:#C8C8C8"
         id="stop7" />
      <stop
         offset="100%"
         style="stop-color:#BDBDBD"
         id="stop8" />
    </linearGradient>
    <linearGradient
       id="tankDark"
       x1="0%"
       y1="0%"
       x2="0%"
       y2="100%">
      <stop
         offset="0%"
         style="stop-color:#B0BEC5"
         id="stop9" />
      <stop
         offset="50%"
         style="stop-color:#90A4AE"
         id="stop10" />
      <stop
         offset="100%"
         style="stop-color:#78909C"
         id="stop11" />
    </linearGradient>
    <linearGradient
       id="cabGlass"
       x1="0%"
       y1="0%"
       x2="0%"
       y2="100%">
      <stop
         offset="0%"
         style="stop-color:#2A3A4A;stop-opacity:0.8"
         id="stop12" />
      <stop
         offset="100%"
         style="stop-color:#1A2530;stop-opacity:0.95"
         id="stop13" />
    </linearGradient>
    <linearGradient
       inkscape:collect="always"
       xlink:href="#cabGlass"
       id="linearGradient55"
       x1="5.6694671"
       y1="52.915026"
       x2="5.6694671"
       y2="84.664042"
       gradientTransform="matrix(0,2.3221909,-0.41661989,0,69.727265,0.90260572)"
       gradientUnits="userSpaceOnUse" />
  </defs>
  <rect
     x="43.272728"
     y="4.6136365"
     width="24"
     height="5.2774844"
     rx="2.5"
     fill="#1a1a1a"
     id="rect49"
     style="stroke-width:1.02737" />
  <rect
     x="43.272728"
     y="90.108879"
     width="24"
     height="5.2774844"
     rx="2.5"
     fill="#1a1a1a"
     id="rect50"
     style="stroke-width:1.02737" />
  <!-- 红色驾驶室 -->
  <path
     d="m 27.931816,87.659091 v -72 q 0,-8.000001 8,-8.000001 h 40 q 8,0 8,8.000001 v 72 q 0,4 -6,4 h -44 q -6,0 -6,-4 z"
     fill="url(#redTruckCab)"
     id="path13"
     style="fill:url(#redTruckCab)" />
  <!-- 前挡风 -->
  <path
     d="M 47.681815,14.068189 V 87.795457 L 34.454547,85.16234 V 16.701305 Z"
     fill="url(#cabGlass)"
     id="path14"
     style="fill:url(#linearGradient55);stroke-width:0.983598" />
  <!-- 侧窗 -->
  <!-- 格栅 -->
  <rect
     x="-73.818184"
     y="54.795456"
     width="49.159092"
     height="14"
     rx="8.193182"
     fill="#b71c1c"
     opacity="0.5"
     id="rect15"
     transform="rotate(-90)"
     style="stroke-width:2.024" />
  <line
     x1="57.795456"
     y1="62.176971"
     x2="57.795456"
     y2="37.317333"
     stroke="#d32f2f"
     stroke-width="2.0355"
     id="line15" />
  <line
     x1="61.795456"
     y1="62.176971"
     x2="61.795456"
     y2="37.317333"
     stroke="#d32f2f"
     stroke-width="2.0355"
     id="line16" />
  <line
     x1="65.795456"
     y1="62.176971"
     x2="65.795456"
     y2="37.317333"
     stroke="#d32f2f"
     stroke-width="2.0355"
     id="line17" />
  <!-- 驾驶室顶 -->
  <!-- 连接区 -->
  <rect
     x="84"
     y="29.795454"
     width="8"
     height="40.204544"
     rx="1"
     fill="#555555"
     id="rect17"
     style="stroke-width:1.58518" />
  <!-- 银色罐体 -->
  <path
     d="M 96,14 L 290,14 Q 296,14 296,22 L 296,78 Q 296,86 290,86 L 96,86 Q 92,86 92,78 L 92,22 Q 92,14 96,14 Z"
     fill="url(#tankSilver)"
     id="path18" />
  <!-- 深灰双色带 -->
  <rect
     x="94"
     y="38"
     width="200"
     height="24"
     fill="url(#tankDark)"
     id="rect18" />
  <!-- 黄色危险条纹 -->
  <rect
     x="94"
     y="47"
     width="200"
     height="6"
     fill="#FFC107"
     opacity="0.9"
     id="rect19" />
  <!-- 警示菱形标志（两侧对称） -->
  <g
     transform="translate(140, 50)"
     id="g21">
    <polygon
       points="0,-8 8,0 0,8 -8,0"
       fill="#FFC107"
       stroke="#333"
       stroke-width="1"
       id="polygon19" />
    <polygon
       points="0,-4 3,0 0,4 -3,0"
       fill="#333"
       id="polygon20" />
    <line
       x1="-2.5"
       y1="-2.5"
       x2="2.5"
       y2="2.5"
       stroke="#333"
       stroke-width="0.8"
       id="line20" />
    <line
       x1="2.5"
       y1="-2.5"
       x2="-2.5"
       y2="2.5"
       stroke="#333"
       stroke-width="0.8"
       id="line21" />
  </g>
  <g
     transform="translate(240, 50)"
     id="g23">
    <polygon
       points="0,-8 8,0 0,8 -8,0"
       fill="#FFC107"
       stroke="#333"
       stroke-width="1"
       id="polygon21" />
    <polygon
       points="0,-4 3,0 0,4 -3,0"
       fill="#333"
       id="polygon22" />
    <line
       x1="-2.5"
       y1="-2.5"
       x2="2.5"
       y2="2.5"
       stroke="#333"
       stroke-width="0.8"
       id="line22" />
    <line
       x1="2.5"
       y1="-2.5"
       x2="-2.5"
       y2="2.5"
       stroke="#333"
       stroke-width="0.8"
       id="line23" />
  </g>
  <!-- 罐体环筋 -->
  <g
     fill="none"
     stroke="#AAA"
     stroke-width="1"
     opacity="0.5"
     id="g29">
    <line
       x1="112"
       y1="16"
       x2="112"
       y2="84"
       id="line24" />
    <line
       x1="136"
       y1="16"
       x2="136"
       y2="84"
       id="line25" />
    <line
       x1="164"
       y1="16"
       x2="164"
       y2="84"
       id="line26" />
    <line
       x1="220"
       y1="16"
       x2="220"
       y2="84"
       id="line27" />
    <line
       x1="256"
       y1="16"
       x2="256"
       y2="84"
       id="line28" />
    <line
       x1="280"
       y1="18"
       x2="280"
       y2="82"
       id="line29" />
  </g>
  <!-- 顶部栏杆 -->
  <g
     fill="none"
     stroke="#999"
     stroke-width="1.2"
     opacity="0.6"
     id="g35">
    <line
       x1="100"
       y1="18"
       x2="288"
       y2="18"
       id="line30" />
    <line
       x1="106"
       y1="14"
       x2="106"
       y2="22"
       id="line31" />
    <line
       x1="126"
       y1="14"
       x2="126"
       y2="22"
       id="line32" />
    <line
       x1="152"
       y1="14"
       x2="152"
       y2="22"
       id="line33" />
    <line
       x1="248"
       y1="14"
       x2="248"
       y2="22"
       id="line34" />
    <line
       x1="274"
       y1="14"
       x2="274"
       y2="22"
       id="line35" />
  </g>
  <!-- 侧梯 -->
  <g
     stroke="#888"
     stroke-width="1.2"
     fill="none"
     id="g40">
    <line
       x1="118"
       y1="22"
       x2="118"
       y2="78"
       id="line36" />
    <line
       x1="114"
       y1="30"
       x2="122"
       y2="30"
       id="line37" />
    <line
       x1="114"
       y1="42"
       x2="122"
       y2="42"
       id="line38" />
    <line
       x1="114"
       y1="54"
       x2="122"
       y2="54"
       id="line39" />
    <line
       x1="114"
       y1="66"
       x2="122"
       y2="66"
       id="line40" />
  </g>
  <!-- 双边后视镜 -->
  <ellipse
     cx="39.774364"
     cy="57.712879"
     rx="2.1370368"
     ry="14.781009"
     fill="#d32f2f"
     transform="matrix(0.71751167,-0.69654649,0.0320106,0.99948753,0,0)"
     id="ellipse40"
     style="stroke-width:1.06213" />
  <ellipse
     cx="44.225391"
     cy="42.056084"
     rx="2.1370368"
     ry="14.781009"
     fill="#d32f2f"
     transform="matrix(0.71751167,0.69654649,-0.0320106,0.99948753,0,0)"
     id="ellipse42"
     style="stroke-width:1.06213" />
  <!-- 大灯 -->
  <ellipse
     cx="31.553747"
     cy="21.406418"
     rx="1.9462541"
     ry="6.4291444"
     fill="#fff5e0"
     opacity="0.8"
     id="ellipse44"
     style="stroke-width:0.913339" />
  <ellipse
     cx="31.553747"
     cy="81.411766"
     rx="1.9462541"
     ry="6.4291444"
     fill="#fff5e0"
     opacity="0.8"
     id="ellipse46"
     style="stroke-width:0.913339" />
  <!-- 尾灯 -->
  <rect
     x="-89.5"
     y="28.068182"
     width="4"
     height="1.5570034"
     rx="1"
     fill="#ff1744"
     opacity="0.9"
     id="rect47"
     transform="rotate(-90)"
     style="stroke-width:0.6239" />
  <rect
     x="-17.5"
     y="28.068182"
     width="4"
     height="1.5570034"
     rx="1"
     fill="#ff1744"
     opacity="0.9"
     id="rect48"
     transform="rotate(-90)"
     style="stroke-width:0.6239" />
  <!-- 四轮 -->
  <rect
     x="138.75"
     y="7"
     width="31.25"
     height="5"
     rx="3.90625"
     fill="#1a1a1a"
     id="rect51"
     style="stroke-width:1.25" />
  <rect
     x="215.34091"
     y="7"
     width="32.272728"
     height="5"
     rx="4.034091"
     fill="#1a1a1a"
     id="rect52"
     style="stroke-width:1.27029" />
  <rect
     x="138.75"
     y="88"
     width="31.25"
     height="5"
     rx="3.90625"
     fill="#1a1a1a"
     id="rect53"
     style="stroke-width:1.25" />
  <rect
     x="215.34091"
     y="88"
     width="32.272728"
     height="5"
     rx="4.034091"
     fill="#1a1a1a"
     id="rect54"
     style="stroke-width:1.27029" />
  <!-- 轮廓 -->
  <path
     d="M 27.590908,87.999999 V 16.000001 q 0,-8.0000002 8,-8.0000002 h 39.999999 q 8,0 8,8.0000002 v 71.999998 q 0,4 -6,4 H 33.590908 q -6,0 -6,-4 z"
     fill="none"
     stroke="#b71c1c"
     stroke-width="1.2"
     id="path54" />
  <path
     d="M 96,14 L 290,14 Q 296,14 296,22 L 296,78 Q 296,86 290,86 L 96,86 Q 92,86 92,78 L 92,22 Q 92,14 96,14 Z"
     fill="none"
     stroke="#888"
     stroke-width="1.2"
     id="path55" />
</svg>
