<?xml version="1.0" encoding="UTF-8" standalone="no"?>
<svg
   viewBox="0 0 200 100"
   version="1.1"
   id="svg31"
   sodipodi:docname="police.svg"
   inkscape:version="1.4.4 (dcaf3e7, 2026-05-05)"
   xmlns:inkscape="http://www.inkscape.org/namespaces/inkscape"
   xmlns:sodipodi="http://sodipodi.sourceforge.net/DTD/sodipodi-0.dtd"
   xmlns:xlink="http://www.w3.org/1999/xlink"
   xmlns="http://www.w3.org/2000/svg"
   xmlns:svg="http://www.w3.org/2000/svg">
  <sodipodi:namedview
     id="namedview31"
     pagecolor="#ffffff"
     bordercolor="#000000"
     borderopacity="0.25"
     inkscape:showpageshadow="2"
     inkscape:pageopacity="0.0"
     inkscape:pagecheckerboard="0"
     inkscape:deskcolor="#d1d1d1"
     inkscape:zoom="4.4"
     inkscape:cx="92.272727"
     inkscape:cy="59.545455"
     inkscape:window-width="1538"
     inkscape:window-height="1261"
     inkscape:window-x="561"
     inkscape:window-y="199"
     inkscape:window-maximized="0"
     inkscape:current-layer="svg31" />
  <defs
     id="defs8">
    <linearGradient
       id="whiteBody"
       x1="0%"
       y1="0%"
       x2="100%"
       y2="100%">
      <stop
         offset="0%"
         style="stop-color:#F8F8F8"
         id="stop1" />
      <stop
         offset="50%"
         style="stop-color:#E8E8E8"
         id="stop2" />
      <stop
         offset="100%"
         style="stop-color:#D8D8D8"
         id="stop3" />
    </linearGradient>
    <linearGradient
       id="blueBody"
       x1="0%"
       y1="0%"
       x2="100%"
       y2="100%">
      <stop
         offset="0%"
         style="stop-color:#2196F3"
         id="stop4" />
      <stop
         offset="50%"
         style="stop-color:#1565C0"
         id="stop5" />
      <stop
         offset="100%"
         style="stop-color:#0D47A1"
         id="stop6" />
    </linearGradient>
    <linearGradient
       id="glassGrad"
       x1="0%"
       y1="0%"
       x2="0%"
       y2="100%">
      <stop
         offset="0%"
         style="stop-color:#2A3A4A;stop-opacity:0.85"
         id="stop7" />
      <stop
         offset="100%"
         style="stop-color:#1A2530;stop-opacity:0.95"
         id="stop8" />
    </linearGradient>
    <linearGradient
       inkscape:collect="always"
       xlink:href="#glassGrad"
       id="linearGradient31"
       x1="43.172062"
       y1="76.113922"
       x2="41.10961"
       y2="101.19289"
       gradientTransform="matrix(0,2.4352079,-1.099344,0.27711685,244.09302,-110.82788)"
       gradientUnits="userSpaceOnUse" />
    <linearGradient
       inkscape:collect="always"
       xlink:href="#blueBody"
       id="linearGradient32"
       x1="8.6670189"
       y1="8.4217815"
       x2="66.321531"
       y2="66.584712"
       gradientTransform="matrix(0.57047402,0,0,1.3816986,2.4380166,0)"
       gradientUnits="userSpaceOnUse" />
    <linearGradient
       inkscape:collect="always"
       xlink:href="#glassGrad"
       id="linearGradient33"
       x1="79.219526"
       y1="18.63177"
       x2="79.219526"
       y2="47.614524"
       gradientTransform="matrix(1.0350983,0,0,2.1658648,2.5,-22.12662)"
       gradientUnits="userSpaceOnUse" />
    <linearGradient
       inkscape:collect="always"
       xlink:href="#glassGrad"
       id="linearGradient35"
       gradientUnits="userSpaceOnUse"
       gradientTransform="matrix(0,-2.4117188,1.115049,-0.27444389,-44.487533,209.14499)"
       x1="43.172062"
       y1="76.113922"
       x2="41.10961"
       y2="101.19289" />
    <linearGradient
       inkscape:collect="always"
       xlink:href="#blueBody"
       id="linearGradient36"
       x1="214.96046"
       y1="5.6568542"
       x2="274.35743"
       y2="65.053824"
       gradientTransform="matrix(0.5578797,0,0,1.4142136,40.941558,0)"
       gradientUnits="userSpaceOnUse" />
  </defs>
  <!-- 基底：整个车身白色填充 -->
  <path
     d="M 16,8 L 184,8 Q 194,8 194,18 L 194,82 Q 194,92 184,92 L 16,92 Q 6,92 6,82 L 6,18 Q 6,8 16,8 Z"
     fill="url(#whiteBody)"
     id="path8" />
  <!-- 蓝色车尾（左侧：x=6..50，完全覆盖外轮廓） -->
  <path
     d="M 10.929329,8.2272727 40.272727,8 V 92 H 13.616454 C 12.56549,92 5.5909091,89.333333 5.5909091,84 V 16 c 0,-5.333333 4.2874758,-7.7645874 5.3384199,-7.7727273 z"
     fill="url(#blueBody)"
     id="path9"
     style="fill:url(#linearGradient32);stroke-width:0.887819"
     sodipodi:nodetypes="sccssss" />
  <!-- 蓝色车头（右侧：x=150..194，完全覆盖外轮廓） -->
  <path
     d="m 160.86364,8 h 25.24675 Q 194,8 194,18 v 64 q 0,10 -7.88961,10 h -25.24675 z"
     fill="url(#blueBody)"
     id="path10"
     style="fill:url(#linearGradient36);stroke-width:0.888235" />
  <!-- 蓝白分色装饰线 -->
  <rect
     x="70"
     y="10"
     width="60"
     height="80"
     fill="none"
     stroke="#1565C0"
     stroke-width="2.5"
     opacity="0.6"
     id="rect10" />
  <!-- 前挡风玻璃（靠车头/右侧） -->
  <!-- 后窗玻璃（靠车尾/左侧） -->
  <path
     d="m 160.65867,14.429266 0.31604,70.686924 -28.85062,-0.496852 0.4071,-69.569762 z m -15.59305,63.231479 m -15.90909,-4.260254"
     fill="url(#glassGrad)"
     id="path12"
     style="fill:url(#linearGradient31);stroke-width:1.6362"
     sodipodi:nodetypes="ccccc" />
  <path
     d="m 40.138736,85.096017 -0.320554,-70.005108 29.262776,0.492062 -0.412921,68.898718 z m 15.81581,-62.621576 m 16.136362,4.219161"
     fill="url(#glassGrad)"
     id="path12-3"
     style="fill:url(#linearGradient35);stroke-width:1.63988"
     sodipodi:nodetypes="ccccc" />
  <!-- 侧窗 -->
  <rect
     x="84.5"
     y="18.227272"
     width="30"
     height="62.772728"
     rx="2"
     fill="url(#glassGrad)"
     opacity="0.6"
     id="rect12"
     style="fill:url(#linearGradient33);stroke-width:1.4973" />
  <!-- 警灯条（偏车头/右侧放置） -->
  <rect
     x="23.477266"
     y="-105.75001"
     width="52.363636"
     height="12"
     rx="3.7402599"
     fill="#1a1a1a"
     id="rect13"
     transform="rotate(90)"
     style="stroke-width:0.96699" />
  <rect
     x="27.4935"
     y="-103.75"
     width="12.048701"
     height="8"
     rx="2.008117"
     fill="#ff1744"
     id="rect14"
     transform="rotate(90)"
     style="stroke-width:1.00203" />
  <rect
     x="41.550323"
     y="-103.75"
     width="14.056818"
     height="8"
     rx="2.008117"
     fill="#e0e0e0"
     id="rect15"
     transform="rotate(90)"
     style="stroke-width:1.00203" />
  <rect
     x="57.615265"
     y="-103.75"
     width="14.056818"
     height="8"
     rx="2.008117"
     fill="#2962ff"
     id="rect16"
     transform="rotate(90)"
     style="stroke-width:1.00203" />
  <!-- 天线 -->
  <line
     x1="105.97728"
     y1="36.360386"
     x2="110.97728"
     y2="36.360386"
     stroke="#555555"
     stroke-width="1.20243"
     id="line16" />
  <ellipse
     cx="36.360386"
     cy="-110.97728"
     fill="#333333"
     id="circle16"
     transform="rotate(90)"
     rx="1.5060877"
     ry="1.5"
     style="stroke-width:1.00203" />
  <!-- 双侧后视镜 -->
  <ellipse
     cx="-76.17775"
     cy="2.9816511"
     rx="1.688475"
     ry="1.8374268"
     fill="#1565c0"
     transform="matrix(-0.14758864,-0.98904883,0.95709334,-0.28977981,0,0)"
     id="ellipse16"
     style="stroke-width:0.359539" />
  <ellipse
     cx="-21.676006"
     cy="18.071192"
     rx="1.688475"
     ry="1.8374268"
     fill="#1565c0"
     transform="matrix(0.14758864,-0.98904883,0.95709334,0.28977981,0,0)"
     id="ellipse17"
     style="stroke-width:0.359539" />
  <ellipse
     cx="-44.872223"
     cy="198.69557"
     rx="1.6243969"
     ry="3.2909114"
     fill="#1565c0"
     transform="matrix(0.28379518,-0.95888492,0.98854803,0.1509066,0,0)"
     id="ellipse18"
     style="stroke-width:0.471953" />
  <ellipse
     cx="-56.340462"
     cy="169.63919"
     rx="1.6243969"
     ry="3.2909114"
     fill="#1565c0"
     transform="matrix(-0.28379518,-0.95888492,0.98854803,-0.1509066,0,0)"
     id="ellipse19"
     style="stroke-width:0.471953" />
  <!-- POLICE 文字 -->
  <text
     x="-35.223076"
     y="175.36324"
     font-size="10.8874px"
     fill="#ffffff"
     font-weight="bold"
     text-anchor="middle"
     font-family="Arial, sans-serif"
     id="text19"
     transform="matrix(0,-1.4088012,0.70982336,0,0,0)"
     style="stroke-width:1.67498">POLICE</text>
  <text
     x="34.056568"
     y="-104.57629"
     font-size="10.8874px"
     fill="#ffffff"
     font-weight="bold"
     text-anchor="middle"
     font-family="Arial, sans-serif"
     id="text19-5"
     transform="matrix(0,1.4088012,-0.70982336,0,0,0)"
     style="stroke-width:1.67498">POLICE</text>
  <!-- 格栅 -->
  <rect
     x="10"
     y="42"
     width="6"
     height="10"
     rx="1"
     fill="#111"
     opacity="0.5"
     id="rect20" />
  <rect
     x="184"
     y="42"
     width="6"
     height="10"
     rx="1"
     fill="#111"
     opacity="0.5"
     id="rect21" />
  <!-- 大灯 -->
  <ellipse
     cx="-87.284203"
     cy="12.298817"
     rx="2.1341159"
     ry="0.89893842"
     fill="#fff5e0"
     opacity="0.8"
     id="ellipse21"
     transform="rotate(-90)"
     style="stroke-width:0.357626" />
  <ellipse
     cx="-13.870603"
     cy="12.298817"
     rx="2.1341159"
     ry="0.89893842"
     fill="#fff5e0"
     opacity="0.8"
     id="ellipse22"
     transform="rotate(-90)"
     style="stroke-width:0.357626" />
  <ellipse
     cx="-84.954819"
     cy="188.12012"
     rx="1.9905095"
     ry="1.6629514"
     fill="#fff5e0"
     opacity="0.8"
     id="ellipse23"
     transform="rotate(-90)"
     style="stroke-width:0.469759" />
  <ellipse
     cx="-16.481295"
     cy="188.12012"
     rx="1.9905095"
     ry="1.6629514"
     fill="#fff5e0"
     opacity="0.8"
     id="ellipse24"
     transform="rotate(-90)"
     style="stroke-width:0.469759" />
  <!-- 尾灯 -->
  <rect
     x="-71.419357"
     y="190.3374"
     width="2.3886113"
     height="2.2172685"
     rx="0.3981019"
     fill="#dd2222"
     opacity="0.9"
     id="rect24"
     transform="rotate(-90)"
     style="stroke-width:0.469759" />
  <rect
     x="-32.405384"
     y="190.3374"
     width="2.3886113"
     height="2.2172685"
     rx="0.3981019"
     fill="#dd2222"
     opacity="0.9"
     id="rect25"
     transform="rotate(-90)"
     style="stroke-width:0.469759" />
  <rect
     x="-85.409088"
     y="11.409091"
     width="3.9676573"
     height="4"
     rx="0.66127622"
     fill="#dd2222"
     opacity="0.9"
     id="rect26"
     transform="rotate(-90)"
     style="stroke-width:0.813189" />
  <rect
     x="-19.240385"
     y="11.636364"
     width="3.9676573"
     height="4"
     rx="0.66127622"
     fill="#dd2222"
     opacity="0.9"
     id="rect27"
     transform="rotate(-90)"
     style="stroke-width:0.813189" />
  <!-- 四轮 -->
  <rect
     x="146"
     y="7"
     width="22"
     height="5"
     rx="2.5"
     fill="#1A1A1A"
     id="rect28" />
  <rect
     x="146"
     y="88"
     width="22"
     height="5"
     rx="2.5"
     fill="#1A1A1A"
     id="rect29" />
  <rect
     x="32"
     y="7"
     width="22"
     height="5"
     rx="2.5"
     fill="#1A1A1A"
     id="rect30" />
  <rect
     x="32"
     y="88"
     width="22"
     height="5"
     rx="2.5"
     fill="#1A1A1A"
     id="rect31" />
  <!-- 轮廓 -->
  <path
     d="M 16,8 L 184,8 Q 194,8 194,18 L 194,82 Q 194,92 184,92 L 16,92 Q 6,92 6,82 L 6,18 Q 6,8 16,8 Z"
     fill="none"
     stroke="#333"
     stroke-width="1.2"
     id="path31" />
</svg>
