<svg xmlns="http://www.w3.org/2000/svg" viewBox="0 0 200 100"><path d="M 2,2 L 110,2 Q 112,2 112,4 L 112,96 Q 112,98 110,98 L 2,98 Q 2,98 2,96 L 2,4 Z" fill="#FFFFFF"/><path d="M 112,2 L 192,2 Q 198,2 198,8 L 198,92 Q 198,98 192,98 L 112,98 Z" fill="#212121"/><rect x="2" y="2" width="196" height="96" rx="6" fill="none" stroke="#424242" stroke-width="1.5"/><rect x="2" y="38" width="110" height="5" fill="#1565C0"/><rect x="112" y="38" width="86" height="5" fill="#B71C1C"/><rect x="2" y="57" width="110" height="5" fill="#1565C0"/><rect x="112" y="57" width="86" height="5" fill="#B71C1C"/><rect x="72" y="3" width="60" height="12" rx="4" fill="#212121"/><circle cx="80" cy="9" r="4" fill="#FF1744"/><circle cx="94" cy="9" r="4" fill="#1565C0"/><circle cx="108" cy="9" r="4" fill="#FF1744"/><circle cx="122" cy="9" r="4" fill="#1565C0"/><text x="56" y="72" font-size="10" fill="#212121" font-weight="bold" text-anchor="middle" dominant-baseline="central" font-family="Arial,sans-serif">POLICE</text><text x="155" y="72" font-size="10" fill="#FFFFFF" font-weight="bold" text-anchor="middle" dominant-baseline="central" font-family="Arial,sans-serif">POLICE</text><rect x="4" y="25.0" width="44.0" height="50.0" rx="3" fill="rgba(255,255,255,0.35)"/><rect x="16.0" y="2" width="28.000000000000004" height="4" rx="2" fill="#333"/><rect x="16.0" y="94" width="28.000000000000004" height="4" rx="2" fill="#333"/><rect x="144.0" y="2" width="28.000000000000004" height="4" rx="2" fill="#333"/><rect x="144.0" y="94" width="28.000000000000004" height="4" rx="2" fill="#333"/></svg>