<svg xmlns="http://www.w3.org/2000/svg" viewBox="0 0 200 100"><rect x="8" y="15" width="100" height="70" rx="6" fill="#FFFFFF"/><rect x="108" y="15" width="84" height="70" rx="6" fill="#212121"/><rect x="8" y="15" width="184" height="70" rx="6" fill="none" stroke="#424242" stroke-width="2"/><rect x="8" y="38" width="60" height="6" rx="4" fill="#1565C0"/><rect x="68" y="38" width="60" height="6" rx="4" fill="#1565C0"/><rect x="130" y="38" width="65" height="6" rx="4" fill="#B71C1C"/><rect x="70" y="3" width="60" height="14" rx="6" fill="#212121"/><circle cx="83" cy="10" r="5" fill="#FF1744"/><circle cx="96" cy="10" r="5" fill="#1565C0"/><circle cx="109" cy="10" r="5" fill="#FF1744"/><circle cx="122" cy="10" r="5" fill="#1565C0"/><text x="65" y="55" font-size="9" fill="#FFFFFF" font-weight="bold" text-anchor="middle" dominant-baseline="central" font-family="Arial,sans-serif">POLICE</text><text x="150" y="55" font-size="9" fill="#FFFFFF" font-weight="bold" text-anchor="middle" dominant-baseline="central" font-family="Arial,sans-serif">POLICE</text><rect x="35" y="22" width="40" height="16" rx="3" fill="rgba(0,0,0,0.2)"/><rect x="30" y="12" width="18" height="8" rx="2" fill="#333"/><rect x="30" y="80" width="18" height="8" rx="2" fill="#333"/><rect x="140" y="12" width="18" height="8" rx="2" fill="#333"/><rect x="140" y="80" width="18" height="8" rx="2" fill="#333"/></svg>