<?xml version="1.0" encoding="UTF-8" standalone="no"?>
<svg
   viewBox="0 0 200 100"
   version="1.1"
   id="svg26"
   sodipodi:docname="sedan.svg"
   inkscape:version="1.4.4 (dcaf3e7, 2026-05-05)"
   xmlns:inkscape="http://www.inkscape.org/namespaces/inkscape"
   xmlns:sodipodi="http://sodipodi.sourceforge.net/DTD/sodipodi-0.dtd"
   xmlns:xlink="http://www.w3.org/1999/xlink"
   xmlns="http://www.w3.org/2000/svg"
   xmlns:svg="http://www.w3.org/2000/svg">
  <sodipodi:namedview
     id="namedview26"
     pagecolor="#ffffff"
     bordercolor="#000000"
     borderopacity="0.25"
     inkscape:showpageshadow="2"
     inkscape:pageopacity="0.0"
     inkscape:pagecheckerboard="0"
     inkscape:deskcolor="#d1d1d1"
     inkscape:zoom="4.4"
     inkscape:cx="100"
     inkscape:cy="73.977273"
     inkscape:window-width="1621"
     inkscape:window-height="1220"
     inkscape:window-x="390"
     inkscape:window-y="107"
     inkscape:window-maximized="0"
     inkscape:current-layer="svg26" />
  <defs
     id="defs7">
    <linearGradient
       id="bodyGrad"
       x1="0%"
       y1="0%"
       x2="100%"
       y2="100%">
      <stop
         offset="0%"
         style="stop-color:#7A8B8C"
         id="stop1" />
      <stop
         offset="50%"
         style="stop-color:#5D6D6E"
         id="stop2" />
      <stop
         offset="100%"
         style="stop-color:#4A5A5B"
         id="stop3" />
    </linearGradient>
    <linearGradient
       id="glassGrad"
       x1="0%"
       y1="0%"
       x2="0%"
       y2="100%">
      <stop
         offset="0%"
         style="stop-color:#3A4A5A;stop-opacity:0.85"
         id="stop4" />
      <stop
         offset="100%"
         style="stop-color:#1A2A3A;stop-opacity:0.95"
         id="stop5" />
    </linearGradient>
    <linearGradient
       id="roofGrad"
       x1="27.174649"
       y1="64.766246"
       x2="27.174649"
       y2="100.09329"
       gradientTransform="matrix(1.4719601,0,0,0.67936622,-113.13636,58.409082)"
       gradientUnits="userSpaceOnUse">
      <stop
         offset="0%"
         style="stop-color:#2A3A4A;stop-opacity:0.9"
         id="stop6" />
      <stop
         offset="100%"
         style="stop-color:#1A2530;stop-opacity:0.95"
         id="stop7" />
    </linearGradient>
    <linearGradient
       inkscape:collect="always"
       xlink:href="#glassGrad"
       id="linearGradient26"
       x1="9.859006"
       y1="32.863353"
       x2="9.859006"
       y2="65.726707"
       gradientTransform="matrix(0,-2.2268518,1.2392915,0,-1.9545468,108.04545)"
       gradientUnits="userSpaceOnUse" />
    <linearGradient
       inkscape:collect="always"
       xlink:href="#glassGrad"
       id="linearGradient27"
       x1="12.247449"
       y1="166.5653"
       x2="12.247449"
       y2="195.95918"
       gradientTransform="matrix(0,2.5036136,-0.74072321,0,291.51515,-17.662876)"
       gradientUnits="userSpaceOnUse" />
  </defs>
  <!-- 车身 -->
  <path
     d="M 18,8 L 182,8 Q 192,8 192,18 L 192,82 Q 192,92 182,92 L 18,92 Q 8,92 8,82 L 8,18 Q 8,8 18,8 Z"
     fill="url(#bodyGrad)"
     id="path7" />
  <!-- 前挡风玻璃 -->
  <path
     d="M 38.772727,84.316805 39.801192,14.128789 79.5,12.909092 v 73.181817 z"
     fill="url(#glassGrad)"
     id="path8"
     style="fill:url(#linearGradient26);stroke-width:1.66124"
     sodipodi:nodetypes="ccccc" />
  <!-- 天窗/车顶 -->
  <rect
     x="-73.136368"
     y="102.40908"
     width="52"
     height="24"
     rx="3"
     fill="url(#roofGrad)"
     id="rect8"
     style="fill:url(#roofGrad)"
     transform="rotate(-90)" />
  <!-- 后挡风玻璃 -->
  <path
     d="m 168.13637,13.000004 v 73.590909 l -21.77273,-2.270202 0.82473,-68.595959 z"
     fill="url(#glassGrad)"
     id="path9"
     style="fill:url(#linearGradient27);stroke-width:1.3618"
     sodipodi:nodetypes="ccccc" />
  <!-- 备箱 -->
  <path
     d="M 185.13636,85.070778 V 46.098476 l 3.27273,0.847223 v 37.277858 z"
     fill="#556667"
     id="path10"
     style="stroke-width:0.480688" />
  <!-- 车门线 -->
  <line
     x1="51.623196"
     y1="87.46579"
     x2="144.8768"
     y2="89.443298"
     stroke="#3a4a4b"
     stroke-width="0.967824"
     opacity="0.5"
     id="line11" />
  <!-- 门把手 -->
  <rect
     x="-84.977272"
     y="188.84091"
     width="22.073864"
     height="2.5"
     rx="2.2073865"
     fill="#3a4a4b"
     opacity="0.6"
     id="rect11"
     transform="rotate(-90)"
     style="stroke-width:1.48573" />
  <rect
     x="-36.414776"
     y="188.84091"
     width="22.073864"
     height="2.5"
     rx="2.2073865"
     fill="#3a4a4b"
     opacity="0.6"
     id="rect12"
     transform="rotate(-90)"
     style="stroke-width:1.48573" />
  <!-- 双侧后视镜 -->
  <ellipse
     cx="-89.626129"
     cy="-9.6204529"
     rx="1.6730316"
     ry="3.7612855"
     fill="#4a5a5b"
     transform="matrix(-0.33752867,-0.94131525,0.98053727,-0.19633305,0,0)"
     id="ellipse12"
     style="stroke-width:0.474069" />
  <ellipse
     cx="-10.257754"
     cy="24.762413"
     rx="1.6730316"
     ry="3.7612855"
     fill="#4a5a5b"
     transform="matrix(0.33752867,-0.94131525,0.98053727,0.19633305,0,0)"
     id="ellipse13"
     style="stroke-width:0.474069" />
  <ellipse
     cx="-50.852142"
     cy="198.24332"
     rx="1.7313881"
     ry="3.7670879"
     fill="#4a5a5b"
     transform="matrix(0.32615225,-0.94531725,0.97902694,0.20373082,0,0)"
     id="ellipse14"
     style="stroke-width:0.482638" />
  <ellipse
     cx="-50.179108"
     cy="164.58585"
     rx="1.7313881"
     ry="3.7670879"
     fill="#4a5a5b"
     transform="matrix(-0.32615225,-0.94531725,0.97902694,-0.20373082,0,0)"
     id="ellipse15"
     style="stroke-width:0.482638" />
  <!-- 前大灯 -->
  <ellipse
     cx="-84.624863"
     cy="17.545454"
     rx="2.0380061"
     ry="1.6363636"
     fill="#ffeedd"
     opacity="0.7"
     id="ellipse16"
     transform="rotate(-90)"
     style="stroke-width:0.471516" />
  <ellipse
     cx="-16.147861"
     cy="17.545454"
     rx="2.0380061"
     ry="1.6363636"
     fill="#ffeedd"
     opacity="0.7"
     id="ellipse17"
     transform="rotate(-90)"
     style="stroke-width:0.471516" />
  <ellipse
     cx="-86.765228"
     cy="182.95454"
     rx="2.1180599"
     ry="1.6363636"
     fill="#ffeedd"
     opacity="0.7"
     id="ellipse18"
     transform="rotate(-90)"
     style="stroke-width:0.480688" />
  <ellipse
     cx="-15.598412"
     cy="182.95454"
     rx="2.1180599"
     ry="1.6363636"
     fill="#ffeedd"
     opacity="0.7"
     id="ellipse19"
     transform="rotate(-90)"
     style="stroke-width:0.480688" />
  <!-- 尾灯 -->
  <rect
     x="-88.459679"
     y="185.13637"
     width="2.1180599"
     height="2.1818182"
     rx="0.42361197"
     fill="#cc2222"
     opacity="0.85"
     id="rect19"
     transform="rotate(-90)"
     style="stroke-width:0.480688" />
  <rect
     x="-16.022026"
     y="185.13637"
     width="2.1180599"
     height="2.1818182"
     rx="0.42361197"
     fill="#cc2222"
     opacity="0.85"
     id="rect20"
     transform="rotate(-90)"
     style="stroke-width:0.480688" />
  <rect
     x="-89.590912"
     y="12.999997"
     width="2.2172005"
     height="4"
     rx="0.44344011"
     fill="#cc2222"
     opacity="0.85"
     id="rect21"
     transform="rotate(-90)"
     style="stroke-width:0.665913" />
  <rect
     x="-13.762655"
     y="12.999997"
     width="2.2172005"
     height="4"
     rx="0.44344011"
     fill="#cc2222"
     opacity="0.85"
     id="rect22"
     transform="rotate(-90)"
     style="stroke-width:0.665913" />
  <!-- 四轮（真正俯视：前轴左右轮 + 后轴左右轮） -->
  <!-- 前轴右轮 -->
  <rect
     x="148"
     y="7"
     width="22"
     height="5"
     rx="2.5"
     fill="#1A1A1A"
     id="rect23" />
  <!-- 前轴左轮 -->
  <rect
     x="148"
     y="88"
     width="22"
     height="5"
     rx="2.5"
     fill="#1A1A1A"
     id="rect24" />
  <!-- 后轴右轮 -->
  <rect
     x="28"
     y="7"
     width="22"
     height="5"
     rx="2.5"
     fill="#1A1A1A"
     id="rect25" />
  <!-- 后轴左轮 -->
  <rect
     x="28"
     y="88"
     width="22"
     height="5"
     rx="2.5"
     fill="#1A1A1A"
     id="rect26" />
  <!-- 车身轮廓 -->
  <path
     d="M 18,8 L 182,8 Q 192,8 192,18 L 192,82 Q 192,92 182,92 L 18,92 Q 8,92 8,82 L 8,18 Q 8,8 18,8 Z"
     fill="none"
     stroke="#3A4A4B"
     stroke-width="1.2"
     id="path26" />
</svg>
