<svg xmlns="http://www.w3.org/2000/svg" viewBox="0 0 200 100"><path d="M 12,2 L 188,2 Q 198,2 198,12 L 198,88 Q 198,98 188,98 L 12,98 Q 2,98 2,88 L 2,12 Q 2,2 12,2 Z" fill="#66BB6A"/><rect x="10" y="25.0" width="44.0" height="50.0" rx="3" fill="rgba(255,255,255,0.35)"/><rect x="160.0" y="29.0" width="36.0" height="42.0" rx="3" fill="rgba(255,255,255,0.30)"/><rect x="56.00000000000001" y="27.5" width="46.0" height="45.0" rx="2" fill="rgba(255,255,255,0.25)"/><rect x="106.0" y="27.5" width="46.0" height="45.0" rx="2" fill="rgba(255,255,255,0.25)"/><rect x="16.0" y="2" width="28.000000000000004" height="4" rx="2" fill="#333"/><rect x="16.0" y="94" width="28.000000000000004" height="4" rx="2" fill="#333"/><rect x="144.0" y="2" width="28.000000000000004" height="4" rx="2" fill="#333"/><rect x="144.0" y="94" width="28.000000000000004" height="4" rx="2" fill="#333"/></svg>