<?xml version="1.0" encoding="UTF-8" standalone="no"?>
<svg
   viewBox="0 0 300 100"
   version="1.1"
   id="svg48"
   sodipodi:docname="semi_truck.svg"
   inkscape:version="1.4.4 (dcaf3e7, 2026-05-05)"
   xmlns:inkscape="http://www.inkscape.org/namespaces/inkscape"
   xmlns:sodipodi="http://sodipodi.sourceforge.net/DTD/sodipodi-0.dtd"
   xmlns:xlink="http://www.w3.org/1999/xlink"
   xmlns="http://www.w3.org/2000/svg"
   xmlns:svg="http://www.w3.org/2000/svg">
  <sodipodi:namedview
     id="namedview48"
     pagecolor="#ffffff"
     bordercolor="#000000"
     borderopacity="0.25"
     inkscape:showpageshadow="2"
     inkscape:pageopacity="0.0"
     inkscape:pagecheckerboard="0"
     inkscape:deskcolor="#d1d1d1"
     inkscape:zoom="2.9333333"
     inkscape:cx="150"
     inkscape:cy="50.113636"
     inkscape:window-width="1837"
     inkscape:window-height="1185"
     inkscape:window-x="742"
     inkscape:window-y="188"
     inkscape:window-maximized="0"
     inkscape:current-layer="svg48" />
  <defs
     id="defs9">
    <linearGradient
       id="blueCab"
       x1="3.5338088"
       y1="20.374617"
       x2="75.97689"
       y2="92.817698"
       gradientTransform="matrix(1.1319231,0,0,1.0481584,-2.3863632,-9.4921833)"
       gradientUnits="userSpaceOnUse">
      <stop
         offset="0%"
         style="stop-color:#42A5F5"
         id="stop1" />
      <stop
         offset="40%"
         style="stop-color:#1E88E5"
         id="stop2" />
      <stop
         offset="100%"
         style="stop-color:#1565C0"
         id="stop3" />
    </linearGradient>
    <linearGradient
       id="containerRed"
       x1="0%"
       y1="0%"
       x2="0%"
       y2="100%">
      <stop
         offset="0%"
         style="stop-color:#EF5350"
         id="stop4" />
      <stop
         offset="30%"
         style="stop-color:#E53935"
         id="stop5" />
      <stop
         offset="70%"
         style="stop-color:#D32F2F"
         id="stop6" />
      <stop
         offset="100%"
         style="stop-color:#C62828"
         id="stop7" />
    </linearGradient>
    <linearGradient
       id="cabGlass"
       x1="0%"
       y1="0%"
       x2="0%"
       y2="100%">
      <stop
         offset="0%"
         style="stop-color:#2A3A4A;stop-opacity:0.8"
         id="stop8" />
      <stop
         offset="100%"
         style="stop-color:#1A2530;stop-opacity:0.95"
         id="stop9" />
    </linearGradient>
    <linearGradient
       inkscape:collect="always"
       xlink:href="#cabGlass"
       id="linearGradient48"
       x1="7.1713717"
       y1="43.506321"
       x2="7.1713717"
       y2="76.972722"
       gradientTransform="matrix(0,-2.0196647,0.34294912,0,-0.26136362,97.574674)"
       gradientUnits="userSpaceOnUse" />
    <linearGradient
       inkscape:collect="always"
       xlink:href="#cabGlass"
       id="linearGradient49"
       x1="78.885088"
       y1="23.426481"
       x2="78.885088"
       y2="40.159681"
       gradientTransform="matrix(0.3884493,0,0,3.9252394,43.87987,-74.522727)"
       gradientUnits="userSpaceOnUse" />
  </defs>
  <!-- 蓝色驾驶室 -->
  <path
     d="M 5.6136368,11.863636 H 75.613632 q 8,0 8,11.864347 v 52.203125 q 0,11.864346 -8,11.864346 H 5.6136368 q -4,0 -4,-7.118608 V 18.982244 q 0,-7.118608 4,-7.118608 z"
     fill="url(#blueCab)"
     id="path9"
     style="fill:url(#blueCab);stroke-width:1.08924" />
  <!-- 前挡风 -->
  <path
     d="M 14.659091,83.090909 V 15.5 l 11.477273,2.413961 v 62.762987 z"
     fill="url(#cabGlass)"
     id="path10"
     style="fill:url(#linearGradient48);stroke-width:0.832254" />
  <!-- 侧窗 -->
  <rect
     x="74.522728"
     y="17.431818"
     width="6.5"
     height="65.681816"
     rx="0.9285714"
     fill="url(#cabGlass)"
     id="rect10"
     style="fill:url(#linearGradient49);stroke-width:1.23481" />
  <!-- 格栅 -->
  <rect
     x="-77.590904"
     y="55.818184"
     width="55.636364"
     height="16"
     rx="9.272727"
     fill="#0d47a1"
     opacity="0.5"
     id="rect11"
     transform="rotate(-90)"
     style="stroke-width:2.15322" />
  <line
     x1="58.818184"
     y1="63.681812"
     x2="58.818184"
     y2="35.863628"
     stroke="#1565c0"
     stroke-width="2.15322"
     id="line11" />
  <line
     x1="62.818184"
     y1="63.681812"
     x2="62.818184"
     y2="35.863628"
     stroke="#1565c0"
     stroke-width="2.15322"
     id="line12" />
  <line
     x1="66.818184"
     y1="63.681812"
     x2="66.818184"
     y2="35.863628"
     stroke="#1565c0"
     stroke-width="2.15322"
     id="line13" />
  <!-- 驾驶室顶/卧铺 -->
  <path
     d="m 33.863633,16.977273 v 64.613636 l 6,-2.485139 q 2,-2.48514 2,-7.45542 V 26.917832 q 0,-4.970279 -2,-7.455419 z"
     fill="#1976d2"
     id="path13"
     style="stroke-width:1.11471" />
  <!-- 顶灯 -->
  <ellipse
     cx="26.917824"
     cy="-38.863625"
     fill="#ff9800"
     id="circle13"
     transform="rotate(90)"
     rx="2.4851398"
     ry="2"
     style="stroke-width:1.11471" />
  <ellipse
     cx="41.828667"
     cy="-38.863625"
     fill="#ff9800"
     id="circle14"
     transform="rotate(90)"
     rx="2.4851398"
     ry="2"
     style="stroke-width:1.11471" />
  <ellipse
     cx="56.739502"
     cy="-38.863625"
     fill="#ff9800"
     id="circle15"
     transform="rotate(90)"
     rx="2.4851398"
     ry="2"
     style="stroke-width:1.11471" />
  <ellipse
     cx="71.650337"
     cy="-38.863625"
     fill="#ff9800"
     id="circle16"
     transform="rotate(90)"
     rx="2.4851398"
     ry="2"
     style="stroke-width:1.11471" />
  <!-- 连接区 -->
  <rect
     x="84"
     y="25.318182"
     width="8"
     height="46.68182"
     rx="1"
     fill="#555555"
     id="rect16"
     style="stroke-width:1.7081" />
  <!-- 集装箱拖车 -->
  <path
     d="M 94,10 L 290,10 Q 298,10 298,18 L 298,82 Q 298,90 290,90 L 94,90 Q 90,90 90,84 L 90,16 Q 90,10 94,10 Z"
     fill="url(#containerRed)"
     id="path16" />
  <!-- 集装箱波纹 -->
  <g
     stroke="#B71C1C"
     stroke-width="0.8"
     opacity="0.4"
     id="g28">
    <line
       x1="108"
       y1="12"
       x2="108"
       y2="88"
       id="line16" />
    <line
       x1="122"
       y1="12"
       x2="122"
       y2="88"
       id="line17" />
    <line
       x1="136"
       y1="12"
       x2="136"
       y2="88"
       id="line18" />
    <line
       x1="150"
       y1="12"
       x2="150"
       y2="88"
       id="line19" />
    <line
       x1="164"
       y1="12"
       x2="164"
       y2="88"
       id="line20" />
    <line
       x1="178"
       y1="12"
       x2="178"
       y2="88"
       id="line21" />
    <line
       x1="192"
       y1="12"
       x2="192"
       y2="88"
       id="line22" />
    <line
       x1="206"
       y1="12"
       x2="206"
       y2="88"
       id="line23" />
    <line
       x1="220"
       y1="12"
       x2="220"
       y2="88"
       id="line24" />
    <line
       x1="234"
       y1="12"
       x2="234"
       y2="88"
       id="line25" />
    <line
       x1="248"
       y1="12"
       x2="248"
       y2="88"
       id="line26" />
    <line
       x1="262"
       y1="12"
       x2="262"
       y2="88"
       id="line27" />
    <line
       x1="276"
       y1="12"
       x2="276"
       y2="88"
       id="line28" />
  </g>
  <!-- 货柜门线 -->
  <rect
     x="282"
     y="14"
     width="12"
     height="72"
     rx="1"
     fill="none"
     stroke="#B71C1C"
     stroke-width="1.5"
     id="rect28" />
  <line
     x1="288"
     y1="14"
     x2="288"
     y2="86"
     stroke="#B71C1C"
     stroke-width="1"
     id="line29" />
  <!-- 双边后视镜 -->
  <ellipse
     cx="0.27519861"
     cy="38.720432"
     rx="4.0129457"
     ry="7.6952958"
     fill="#1565c0"
     transform="matrix(0.98163084,-0.19079018,0.15795848,0.98744575,0,0)"
     id="ellipse29"
     style="stroke-width:1.05018" />
  <ellipse
     cx="16.176815"
     cy="60.099949"
     rx="4.0129457"
     ry="7.6952958"
     fill="#1565c0"
     transform="matrix(0.98163084,0.19079018,-0.15795848,0.98744575,0,0)"
     id="ellipse31"
     style="stroke-width:1.05018" />
  <!-- 大灯 -->
  <ellipse
     cx="9.193182"
     cy="31.420454"
     rx="3.8068182"
     ry="3.4602273"
     fill="#fff5e0"
     opacity="0.8"
     id="ellipse33"
     style="stroke-width:0.937103" />
  <ellipse
     cx="9.193182"
     cy="68.329544"
     rx="3.8068182"
     ry="3.4602273"
     fill="#fff5e0"
     opacity="0.8"
     id="ellipse35"
     style="stroke-width:0.937103" />
  <!-- 尾灯 -->
  <rect
     x="7.670455"
     y="79.863632"
     width="3.0454545"
     height="4.6136365"
     rx="0.76136363"
     fill="#d32f2f"
     opacity="0.85"
     id="rect36"
     style="stroke-width:0.937103" />
  <rect
     x="7.670455"
     y="15.272729"
     width="3.0454545"
     height="4.6136365"
     rx="0.76136363"
     fill="#d32f2f"
     opacity="0.85"
     id="rect38"
     style="stroke-width:0.937103" />
  <!-- 货柜尾灯 -->
  <rect
     x="288"
     y="75"
     width="5"
     height="4"
     rx="1"
     fill="#D32F2F"
     opacity="0.85"
     id="rect40" />
  <rect
     x="288"
     y="18"
     width="5"
     height="4"
     rx="1"
     fill="#D32F2F"
     opacity="0.85"
     id="rect41" />
  <!-- 四轮 -->
  <rect
     x="18"
     y="7"
     width="24"
     height="5"
     rx="2.5"
     fill="#1A1A1A"
     id="rect42" />
  <rect
     x="18"
     y="88"
     width="24"
     height="5"
     rx="2.5"
     fill="#1A1A1A"
     id="rect43" />
  <rect
     x="160"
     y="7"
     width="20"
     height="5"
     rx="2.5"
     fill="#1A1A1A"
     id="rect44" />
  <rect
     x="220"
     y="7"
     width="20"
     height="5"
     rx="2.5"
     fill="#1A1A1A"
     id="rect45" />
  <rect
     x="160"
     y="88"
     width="20"
     height="5"
     rx="2.5"
     fill="#1A1A1A"
     id="rect46" />
  <rect
     x="220"
     y="88"
     width="20"
     height="5"
     rx="2.5"
     fill="#1A1A1A"
     id="rect47" />
  <!-- 轮廓 - 驾驶室 -->
  <path
     d="M 5.3241515,11.579711 H 75.226862 q 7.988881,0 7.988881,12.00634 v 52.827897 q 0,12.006341 -7.988881,12.006341 H 5.3241515 q -3.9944407,0 -3.9944407,-7.203805 V 18.783515 q 0,-7.203804 3.9944407,-7.203804 z"
     fill="none"
     stroke="#0d47a1"
     stroke-width="1.31397"
     id="path47" />
  <!-- 轮廓 - 货柜 -->
  <path
     d="M 94,10 L 290,10 Q 298,10 298,18 L 298,82 Q 298,90 290,90 L 94,90 Q 90,90 90,84 L 90,16 Q 90,10 94,10 Z"
     fill="none"
     stroke="#B71C1C"
     stroke-width="1.2"
     id="path48" />
</svg>
