<svg xmlns="http://www.w3.org/2000/svg" viewBox="0 0 300 100"><path d="M 90,4 L 296,4 Q 298,4 298,6 L 298,94 Q 298,96 296,96 L 90,96 Q 88,96 88,94 L 88,6 Q 88,4 90,4 Z" fill="#FF7043"/><path d="M 6,6 L 82,6 Q 86,6 86,10 L 86,90 Q 86,94 82,94 L 6,94 Q 2,94 2,90 L 2,10 Q 2,6 6,6 Z" fill="#1565C0"/><rect x="6" y="22.0" width="17.16" height="44.0" rx="3" fill="rgba(255,255,255,0.35)"/><line x1="90" y1="8" x2="90" y2="92" stroke="#E64A19" stroke-width="1.5"/><line x1="296" y1="8" x2="296" y2="92" stroke="#E64A19" stroke-width="1.5"/><rect x="24.0" y="2" width="42.00000000000001" height="4" rx="2" fill="#333"/><rect x="24.0" y="94" width="42.00000000000001" height="4" rx="2" fill="#333"/><rect x="216.0" y="2" width="42.00000000000001" height="4" rx="2" fill="#333"/><rect x="216.0" y="94" width="42.00000000000001" height="4" rx="2" fill="#333"/></svg>