<svg xmlns="http://www.w3.org/2000/svg" viewBox="0 0 200 100"><path d="M 8,8 L 184,8 Q 194,8 194,14 L 194,86 Q 194,92 184,92 L 8,92 Q 4,92 4,86 L 4,14 Q 4,8 8,8 Z" fill="#E040FB"/><path d="M 40,14 L 70,14 L 70,86 L 40,86 Z" fill="rgba(255,255,255,0.30)"/><path d="M 145,18 L 165,18 L 165,82 L 145,82 Z" fill="rgba(255,255,255,0.25)"/><path d="M 72,18 L 130,18 L 130,82 L 72,82 Z" fill="rgba(255,255,255,0.18)"/><rect x="8" y="35" width="6" height="30" rx="2" fill="#FFD54F"/><rect x="186" y="30" width="8" height="40" rx="2" fill="#333"/><rect x="16.0" y="2" width="28.000000000000004" height="4" rx="2" fill="#333"/><rect x="16.0" y="94" width="28.000000000000004" height="4" rx="2" fill="#333"/><rect x="144.0" y="2" width="28.000000000000004" height="4" rx="2" fill="#333"/><rect x="144.0" y="94" width="28.000000000000004" height="4" rx="2" fill="#333"/></svg>