<svg xmlns="http://www.w3.org/2000/svg" viewBox="0 0 200 100"><path d="M 5,30 L 15,15 L 185,15 Q 195,15 195,30 L 195,70 Q 195,85 185,85 L 15,85 Q 5,85 5,70 Z" fill="#E040FB"/><path d="M 50,25 L 160,25 Q 170,25 170,35 L 170,65 Q 170,75 160,75 L 50,75 Z" fill="rgba(255,255,255,0.4)" rx="4"/><rect x="170" y="20" width="20" height="8" rx="2" fill="#333"/><rect x="8" y="30" width="6" height="10" rx="4" fill="#FFD54F"/><rect x="8" y="60" width="6" height="10" rx="4" fill="#FF5252"/><rect x="35" y="10" width="22" height="8" rx="2" fill="#333"/><rect x="35" y="82" width="22" height="8" rx="2" fill="#333"/><rect x="135" y="10" width="22" height="8" rx="2" fill="#333"/><rect x="135" y="82" width="22" height="8" rx="2" fill="#333"/></svg>