<?xml version="1.0" encoding="UTF-8" standalone="no"?>
<svg
   viewBox="0 0 200 100"
   version="1.1"
   id="svg25"
   sodipodi:docname="sports_car.svg"
   inkscape:version="1.4.4 (dcaf3e7, 2026-05-05)"
   xmlns:inkscape="http://www.inkscape.org/namespaces/inkscape"
   xmlns:sodipodi="http://sodipodi.sourceforge.net/DTD/sodipodi-0.dtd"
   xmlns="http://www.w3.org/2000/svg"
   xmlns:svg="http://www.w3.org/2000/svg">
  <sodipodi:namedview
     id="namedview25"
     pagecolor="#ffffff"
     bordercolor="#000000"
     borderopacity="0.25"
     inkscape:showpageshadow="2"
     inkscape:pageopacity="0.0"
     inkscape:pagecheckerboard="0"
     inkscape:deskcolor="#d1d1d1"
     inkscape:zoom="4.4"
     inkscape:cx="100.11364"
     inkscape:cy="49.886364"
     inkscape:window-width="1538"
     inkscape:window-height="1186"
     inkscape:window-x="960"
     inkscape:window-y="298"
     inkscape:window-maximized="0"
     inkscape:current-layer="svg25" />
  <defs
     id="defs6">
    <linearGradient
       id="purpleBody"
       x1="0%"
       y1="0%"
       x2="100%"
       y2="100%">
      <stop
         offset="0%"
         style="stop-color:#AB47BC"
         id="stop1" />
      <stop
         offset="30%"
         style="stop-color:#8E24AA"
         id="stop2" />
      <stop
         offset="70%"
         style="stop-color:#6A1B9A"
         id="stop3" />
      <stop
         offset="100%"
         style="stop-color:#4A148C"
         id="stop4" />
    </linearGradient>
    <linearGradient
       id="glassGrad"
       x1="36.04888"
       y1="35.951186"
       x2="36.04888"
       y2="97.367797"
       gradientTransform="matrix(0,-0.9835298,0.84376382,0,46.249266,115.56678)"
       gradientUnits="userSpaceOnUse">
      <stop
         offset="0%"
         style="stop-color:#2A3040;stop-opacity:0.8"
         id="stop5" />
      <stop
         offset="100%"
         style="stop-color:#151A25;stop-opacity:0.95"
         id="stop6" />
    </linearGradient>
  </defs>
  <!-- 宽扁超跑车身 -->
  <path
     d="M 12,18 L 188,18 Q 196,18 196,28 L 196,72 Q 196,82 188,82 L 12,82 Q 4,82 4,72 L 4,28 Q 4,18 12,18 Z"
     fill="url(#purpleBody)"
     id="path6" />
  <!-- 座舱玻璃（中置引擎超跑，座舱靠前） -->
  <path
     d="M 76.583578,78.798471 V 23.646017 q 0,-3.939462 7.583577,-3.939462 l 35.390025,1.313153 q 7.58358,0.656579 8.84751,3.939463 v 49.89984 q -1.26393,3.282884 -8.84751,3.93946 L 84.167155,80.111627 Q 76.583578,79.45505 76.583578,78.798471 Z"
     fill="url(#glassGrad)"
     id="path7"
     style="fill:url(#glassGrad);stroke-width:0.910975" />
  <!-- 引擎舱（后置）可见 -->
  <rect
     x="-67.838692"
     y="91.917877"
     width="36.768307"
     height="17.695015"
     rx="1.3131537"
     fill="#2a2a2a"
     opacity="0.7"
     id="rect7"
     transform="rotate(-90)"
     style="stroke-width:0.910975" />
  <rect
     x="-63.899231"
     y="95.709679"
     width="10.50523"
     height="10.111437"
     rx="0.65657687"
     fill="#444444"
     id="rect8"
     transform="rotate(-90)"
     style="stroke-width:0.910975" />
  <rect
     x="-45.515087"
     y="95.709679"
     width="10.50523"
     height="10.111437"
     rx="0.65657687"
     fill="#444444"
     id="rect9"
     transform="rotate(-90)"
     style="stroke-width:0.910975" />
  <!-- 机盖进气口 -->
  <path
     d="m 18.912023,76.339667 v -9.202351 l 7.583578,0.657309 v 9.202356 z"
     fill="#4a148c"
     opacity="0.4"
     id="path9"
     style="stroke-width:0.644517" />
  <path
     d="m 18.912023,33.614464 v -8.545041 l 7.583578,-0.657311 v 8.545041 z"
     fill="#4a148c"
     opacity="0.4"
     id="path10"
     style="stroke-width:0.644517" />
  <!-- 侧进气口 -->
  <path
     d="m 27.288856,61.627305 v -3.93945 H 70.3827 v 3.93945 z"
     fill="#311b92"
     opacity="0.4"
     rx="1"
     id="path11"
     style="stroke-width:1.6821" />
  <path
     d="m 27.288856,41.44851 v -3.93946 h 42.866572 v 3.93946 z"
     fill="#311b92"
     opacity="0.4"
     rx="1"
     id="path12"
     style="stroke-width:1.67766" />
  <!-- 双侧后视镜（小） -->
  <ellipse
     cx="-126.39672"
     cy="-79.231567"
     rx="1.5938251"
     ry="5.9650631"
     fill="#7b1fa2"
     transform="matrix(-0.81368279,-0.58130914,0.99555131,-0.09422093,0,0)"
     id="ellipse12"
     style="stroke-width:0.79613" />
  <ellipse
     cx="-27.646065"
     cy="46.67049"
     rx="1.5938251"
     ry="5.9650631"
     fill="#7b1fa2"
     transform="matrix(0.81368279,-0.58130914,0.99555131,0.09422093,0,0)"
     id="ellipse13"
     style="stroke-width:0.79613" />
  <ellipse
     cx="-47.932194"
     cy="207.5488"
     rx="2.2600553"
     ry="6.0437407"
     fill="#7b1fa2"
     transform="matrix(0.5738214,-0.81898046,0.98259117,0.18578104,0,0)"
     id="ellipse14"
     style="stroke-width:0.954264" />
  <ellipse
     cx="-59.261093"
     cy="144.02402"
     rx="2.2600553"
     ry="6.0437407"
     fill="#7b1fa2"
     transform="matrix(-0.5738214,-0.81898046,0.98259117,-0.18578104,0,0)"
     id="ellipse15"
     style="stroke-width:0.954264" />
  <!-- 大灯 - 犀利造型 -->
  <path
     d="m 18.912023,81.598148 -3.791789,-3.286554 h 12.639297 l -3.791789,3.286554 z"
     fill="#fff5e0"
     opacity="0.85"
     id="path15"
     style="stroke-width:0.644517" />
  <path
     d="m 15.120234,23.09749 3.791789,-3.286553 h 5.055719 l 3.791789,3.286553 z"
     fill="#fff5e0"
     opacity="0.85"
     id="path16"
     style="stroke-width:0.644517" />
  <path
     d="m 176.43108,79.127305 -3.79179,-6.56577 h 12.6393 l -3.79179,6.56577 z"
     fill="#fff5e0"
     opacity="0.85"
     id="path17"
     style="stroke-width:0.910975" />
  <path
     d="m 171.7302,27.029362 3.79179,-6.565766 h 5.05572 l 3.79179,6.565766 z"
     fill="#fff5e0"
     opacity="0.85"
     id="path18"
     style="stroke-width:0.910975" />
  <!-- 尾灯 - 细条 -->
  <rect
     x="-80.086884"
     y="186.37097"
     width="3.8324792"
     height="3.7917888"
     rx="0.31937328"
     fill="#ff1744"
     opacity="0.9"
     id="rect18"
     transform="rotate(-90)"
     style="stroke-width:0.63535" />
  <rect
     x="-25.154682"
     y="186.37097"
     width="3.8324792"
     height="3.7917888"
     rx="0.31937328"
     fill="#ff1744"
     opacity="0.9"
     id="rect19"
     transform="rotate(-90)"
     style="stroke-width:0.63535" />
  <rect
     x="-79.859612"
     y="8.545455"
     width="3.8473015"
     height="3.7917888"
     rx="0.32060847"
     fill="#ff1744"
     opacity="0.9"
     id="rect20"
     transform="rotate(-90)"
     style="stroke-width:0.636577" />
  <rect
     x="-24.71496"
     y="8.545455"
     width="3.8473015"
     height="3.7917888"
     rx="0.32060847"
     fill="#ff1744"
     opacity="0.9"
     id="rect21"
     transform="rotate(-90)"
     style="stroke-width:0.636577" />
  <!-- 后扩散器/尾翼 -->
  <path
     d="M 191.42669,59.646994 V 41.762093 l 2.52786,0.638746 V 59.00825 Z"
     fill="#311b92"
     opacity="0.5"
     id="path21"
     style="stroke-width:0.63535" />
  <!-- 四轮（宽胎） -->
  <rect
     x="148"
     y="7"
     width="24"
     height="10"
     rx="3"
     fill="#0D0D0D"
     id="rect22" />
  <rect
     x="28"
     y="7"
     width="24"
     height="10"
     rx="3"
     fill="#0D0D0D"
     id="rect23" />
  <rect
     x="148"
     y="83"
     width="24"
     height="10"
     rx="3"
     fill="#0D0D0D"
     id="rect24" />
  <rect
     x="28"
     y="83"
     width="24"
     height="10"
     rx="3"
     fill="#0D0D0D"
     id="rect25" />
  <!-- 轮廓 -->
  <path
     d="M 12,18 L 188,18 Q 196,18 196,28 L 196,72 Q 196,82 188,82 L 12,82 Q 4,82 4,72 L 4,28 Q 4,18 12,18 Z"
     fill="none"
     stroke="#4A148C"
     stroke-width="1.2"
     id="path25" />
</svg>
