<svg xmlns="http://www.w3.org/2000/svg" viewBox="0 0 200 100"><rect x="8" y="15" width="184" height="70" rx="6" fill="#FFD600"/><rect x="8" y="15" width="184" height="70" rx="6" fill="none"/><rect x="8" y="15" width="184" height="70" rx="6" fill="none" stroke="#F9A825" stroke-width="2"/><rect x="15" y="40" width="8" height="8" rx="4" fill="#333"/><rect x="30" y="48" width="8" height="8" rx="4" fill="#333"/><rect x="45" y="40" width="8" height="8" rx="4" fill="#333"/><rect x="60" y="48" width="8" height="8" rx="4" fill="#333"/><rect x="75" y="40" width="8" height="8" rx="4" fill="#333"/><rect x="90" y="48" width="8" height="8" rx="4" fill="#333"/><rect x="105" y="40" width="8" height="8" rx="4" fill="#333"/><rect x="120" y="48" width="8" height="8" rx="4" fill="#333"/><rect x="135" y="40" width="8" height="8" rx="4" fill="#333"/><rect x="150" y="48" width="8" height="8" rx="4" fill="#333"/><rect x="165" y="40" width="8" height="8" rx="4" fill="#333"/><rect x="180" y="48" width="8" height="8" rx="4" fill="#333"/><rect x="45" y="22" width="80" height="18" rx="3" fill="rgba(255,255,255,0.4)"/><rect x="80" y="2" width="40" height="14" rx="6" fill="#FFF9C4"/><text x="100" y="9" font-size="8" fill="#333" font-weight="bold" text-anchor="middle" dominant-baseline="central" font-family="Arial,sans-serif">TAXI</text><rect x="30" y="12" width="18" height="8" rx="2" fill="#333"/><rect x="30" y="80" width="18" height="8" rx="2" fill="#333"/><rect x="140" y="12" width="18" height="8" rx="2" fill="#333"/><rect x="140" y="80" width="18" height="8" rx="2" fill="#333"/></svg>