<svg xmlns="http://www.w3.org/2000/svg" viewBox="0 0 200 100"><path d="M 12,2 L 188,2 Q 198,2 198,12 L 198,88 Q 198,98 188,98 L 12,98 Q 2,98 2,88 L 2,12 Q 2,2 12,2 Z" fill="#FFD600"/><rect x="12" y="42" width="8" height="8" fill="#333"/><rect x="24" y="50" width="8" height="8" fill="#333"/><rect x="36" y="42" width="8" height="8" fill="#333"/><rect x="48" y="50" width="8" height="8" fill="#333"/><rect x="60" y="42" width="8" height="8" fill="#333"/><rect x="72" y="50" width="8" height="8" fill="#333"/><rect x="84" y="42" width="8" height="8" fill="#333"/><rect x="96" y="50" width="8" height="8" fill="#333"/><rect x="108" y="42" width="8" height="8" fill="#333"/><rect x="120" y="50" width="8" height="8" fill="#333"/><rect x="72" y="1" width="56" height="12" rx="4" fill="#FFF9C4" stroke="#F9A825" stroke-width="1"/><text x="100" y="8" font-size="9" fill="#333" font-weight="bold" text-anchor="middle" dominant-baseline="central">TAXI</text><rect x="4" y="25.0" width="44.0" height="50.0" rx="3" fill="rgba(255,255,255,0.35)"/><rect x="160.0" y="29.0" width="36.0" height="42.0" rx="3" fill="rgba(255,255,255,0.30)"/><rect x="16.0" y="2" width="28.000000000000004" height="4" rx="2" fill="#333"/><rect x="16.0" y="94" width="28.000000000000004" height="4" rx="2" fill="#333"/><rect x="144.0" y="2" width="28.000000000000004" height="4" rx="2" fill="#333"/><rect x="144.0" y="94" width="28.000000000000004" height="4" rx="2" fill="#333"/></svg>